<svg width="112" height="71" viewBox="0 0 112 71" fill="none" xmlns="http://www.w3.org/2000/svg">
<path d="M43.2 49.8C43.2 52.8 42.4 55.9 40.9 59C39.4 62.1 36.9 64.8 33.4 67.1C29.9 69.4 25.9 70.6 21.4 70.6C18.9 70.6 16 70 12.8 68.7C9.7 67.4 7.6 66.7 6.6 66.7C4.1 66.7 2 68.5 1.6 70.4H0.6V49.4H1.6C1.6 53.7 3.5 58.2 7.3 62.8C11.2 67.3 15.8 69.6 21.3 69.6C26.3 69.6 30.3 68.3 33.3 65.6C36.4 62.9 37.9 59.8 37.9 56.5C37.9 52.3 36.5 49.1 33.6 47C30.8 44.8 25.5 42.3 17.8 39.4C7.9 35.8 2.3 30.6 2.3 20.3C2.3 15 4 10.5 7.4 6.6C10.8 2.7 14.8 0.699997 19.5 0.699997C21.4 0.699997 23.6 1.1 25.9 2C28.2 2.79999 29.9 3.19999 30.9 3.19999C33.2 3.19999 34.4 2.5 34.7 0.999999H35.7V16.8H34.7C34.7 12.5 33.2 8.9 30.1 6.1C27 3.19999 23.5 1.79999 19.6 1.79999C16.1 1.79999 13.1 3 10.6 5.49999C8.1 7.9 6.9 10.7 6.9 14C6.9 20.7 12 25.2 23.9 29.6C30.6 32 35.4 34.6 38.5 37.5C41.6 40.4 43.2 44.5 43.2 49.8ZM111.367 42.6V43.8H102.767V69.3H101.467C101.367 67.4 99.9672 65.3 97.6672 65.3C94.6672 65.3 89.0672 70.6 79.8672 70.6C71.3672 70.6 64.4672 67.2 59.1672 60.3C53.9672 53.4 51.3672 45.2 51.3672 35.7C51.3672 26.2 54.1672 18 59.8672 11.1C65.5672 4.2 72.6672 0.699997 81.1672 0.699997C82.8672 0.699997 84.9672 1.1 87.4672 2C90.0672 2.79999 91.9672 3.19999 93.0672 3.19999C95.4672 3.19999 97.3672 2.1 97.6672 0.999999H98.5672V20.3H97.6672C97.6672 15.4 96.0672 11.1 92.8672 7.39999C89.6672 3.69999 85.7672 1.79999 81.1672 1.79999C76.2672 1.79999 72.4672 3 69.7672 5.4C64.8672 9.9 62.3672 20 62.3672 35.7C62.3672 44.9 62.7672 51.7 63.5672 56.2C64.3672 60.6 65.9672 63.9 68.3672 66C71.0672 68.4 74.8672 69.6 79.8672 69.6C87.9672 69.6 92.4672 66 92.4672 60.5V43.8H83.8672V42.6H111.367Z" fill="black"/>
</svg>
